# Blender v2.90.1 OBJ File: ''
# www.blender.org
mtllib barrier.mtl
o Cube.001_Cube.002
v -0.010805 -0.001333 0.006868
v -0.010805 -0.001333 -0.006868
v 0.010805 -0.001333 0.006868
v 0.010805 -0.001333 -0.006868
v -0.010450 -0.000243 0.006601
v -0.010805 -0.000700 0.006868
v -0.010664 -0.000377 0.006762
v -0.010450 -0.000243 -0.006601
v -0.010805 -0.000700 -0.006868
v -0.010664 -0.000377 -0.006762
v 0.010450 -0.000243 0.006601
v 0.010805 -0.000700 0.006868
v 0.010664 -0.000377 0.006762
v 0.010450 -0.000243 -0.006601
v 0.010805 -0.000700 -0.006868
v 0.010664 -0.000377 -0.006762
vt 0.419135 0.448377
vt 0.421054 0.448377
vt 0.421054 0.450285
vt 0.419135 0.450285
vt 0.417117 0.447449
vt 0.418270 0.447449
vt 0.418270 0.449434
vt 0.417117 0.449434
vt 0.417117 0.443480
vt 0.418270 0.443480
vt 0.418270 0.445465
vt 0.417117 0.445465
vt 0.415132 0.447449
vt 0.415132 0.449434
vt 0.421087 0.448354
vt 0.421087 0.450308
vt 0.419102 0.444385
vt 0.419102 0.446339
vt 0.418270 0.446354
vt 0.418270 0.444369
vt 0.419105 0.448343
vt 0.420088 0.447353
vt 0.418270 0.448339
vt 0.419105 0.450319
vt 0.418270 0.450324
vt 0.420088 0.451309
vt 0.418270 0.452308
vt 0.418270 0.451419
vt 0.417117 0.451419
vn 0.0000 1.0000 0.0000
vn 1.0000 0.0000 0.0000
vn -1.0000 0.0000 0.0000
vn 0.0000 -1.0000 0.0000
vn 0.0000 0.0000 -1.0000
vn -0.5292 0.8485 0.0000
vn -0.9166 0.3999 0.0000
vn 0.0000 0.7698 -0.6383
vn 0.0000 0.3118 -0.9502
vn 0.5292 0.8485 0.0000
vn 0.9166 0.3999 0.0000
vn 0.0000 0.7698 0.6383
vn 0.0000 0.3118 0.9502
vn 0.0000 0.0000 1.0000
usemtl lambert1.001
s off
f 14/1/1 8/2/1 5/3/1 11/4/1
f 4/5/2 15/6/2 12/7/2 3/8/2
f 1/9/3 6/10/3 9/11/3 2/12/3
f 2/13/4 4/5/4 3/8/4 1/14/4
f 2/12/5 9/11/5 15/6/5 4/5/5
f 5/3/6 8/2/6 10/15/6 7/16/6
f 7/17/7 10/18/7 9/19/7 6/20/7
f 8/2/8 14/1/8 16/21/8 10/22/8
f 10/22/9 16/21/9 15/23/9 9/19/9
f 14/1/10 11/4/10 13/24/10 16/21/10
f 16/21/11 13/24/11 12/25/11 15/23/11
f 11/4/12 5/3/12 7/26/12 13/24/12
f 13/24/13 7/26/13 6/27/13 12/25/13
f 3/8/14 12/7/14 6/28/14 1/29/14
o SM_Prop_Barrier_01_Mesh.001
v -0.008802 0.008955 0.000298
v 0.008788 0.008955 0.000298
v -0.008802 0.011784 0.000298
v 0.008788 0.011784 0.000298
v -0.008226 0.009298 0.000298
v 0.008212 0.009298 0.000298
v 0.008212 0.011441 0.000298
v -0.008226 0.011441 0.000298
v -0.008226 0.009298 0.000103
v 0.008212 0.009298 0.000103
v 0.008212 0.011441 0.000103
v -0.008226 0.011441 0.000103
v -0.008802 0.008955 -0.000282
v 0.008788 0.008955 -0.000282
v -0.008802 0.011784 -0.000282
v 0.008788 0.011784 -0.000282
v -0.008226 0.009298 -0.000282
v 0.008212 0.009298 -0.000282
v 0.008212 0.011441 -0.000282
v -0.008226 0.011441 -0.000282
v -0.008226 0.009298 -0.000086
v 0.008212 0.009298 -0.000086
v 0.008212 0.011441 -0.000086
v -0.008226 0.011441 -0.000086
v 0.008711 0.008748 0.000364
v 0.009537 0.008748 0.000364
v 0.008711 0.012010 0.000364
v 0.009537 0.012010 0.000364
v 0.008711 0.012010 -0.000365
v 0.009537 0.012010 -0.000365
v 0.008711 0.008748 -0.000365
v 0.009537 0.008748 -0.000365
v 0.008711 -0.000262 0.002244
v 0.009537 -0.000262 0.002244
v 0.009537 -0.000262 0.003320
v 0.008711 -0.000262 0.003320
v 0.008711 -0.000262 -0.003320
v 0.009537 -0.000262 -0.003320
v 0.009537 -0.000262 -0.002244
v 0.008711 -0.000262 -0.002244
v 0.009537 0.001285 -0.001900
v 0.008711 0.001285 -0.001900
v 0.009537 0.001194 0.001920
v 0.008711 0.001194 0.001920
v 0.009537 0.003261 0.001460
v 0.008711 0.003261 0.001460
v 0.008711 0.003129 0.002468
v 0.009537 0.003129 0.002468
v 0.009537 0.003376 -0.001434
v 0.009537 0.003269 -0.002433
v 0.008711 0.003269 -0.002433
v 0.008711 0.003376 -0.001434
v 0.008799 0.003002 0.001149
v 0.008799 0.001483 0.001511
v 0.008799 0.003086 -0.001125
v 0.008799 0.001550 -0.001491
v 0.009449 0.003002 0.001149
v 0.009449 0.001483 0.001511
v 0.009449 0.001550 -0.001491
v 0.009449 0.003086 -0.001125
v -0.009537 0.008748 0.000364
v -0.008711 0.008748 0.000364
v -0.009537 0.012010 0.000364
v -0.008711 0.012010 0.000364
v -0.009537 0.012010 -0.000365
v -0.008711 0.012010 -0.000365
v -0.009537 0.008748 -0.000365
v -0.008711 0.008748 -0.000365
v -0.009537 -0.000262 0.002244
v -0.008711 -0.000262 0.002244
v -0.008711 -0.000262 0.003320
v -0.009537 -0.000262 0.003320
v -0.009537 -0.000262 -0.003320
v -0.008711 -0.000262 -0.003320
v -0.008711 -0.000262 -0.002244
v -0.009537 -0.000262 -0.002244
v -0.008711 0.001285 -0.001900
v -0.009537 0.001285 -0.001900
v -0.008711 0.001194 0.001920
v -0.009537 0.001194 0.001920
v -0.008711 0.003261 0.001460
v -0.009537 0.003261 0.001460
v -0.009537 0.003129 0.002468
v -0.008711 0.003129 0.002468
v -0.008711 0.003376 -0.001434
v -0.008711 0.003269 -0.002433
v -0.009537 0.003269 -0.002433
v -0.009537 0.003376 -0.001434
v -0.009449 0.003002 0.001149
v -0.009449 0.001483 0.001511
v -0.009449 0.003086 -0.001125
v -0.009449 0.001550 -0.001491
v -0.008800 0.003002 0.001149
v -0.008800 0.001483 0.001511
v -0.008800 0.001550 -0.001491
v -0.008800 0.003086 -0.001125
v 0.007383 0.011441 0.000103
v 0.005596 0.009298 0.000103
v 0.005050 0.011441 0.000103
v 0.003262 0.009298 0.000103
v 0.002717 0.011441 0.000103
v 0.000929 0.009298 0.000103
v 0.000384 0.011441 0.000103
v -0.001404 0.009298 0.000103
v -0.001949 0.011441 0.000103
v -0.003737 0.009298 0.000103
v -0.004282 0.011441 0.000103
v -0.006070 0.009298 0.000103
v -0.006615 0.011441 0.000103
v -0.002280 0.011044 0.000103
v -0.002673 0.010574 0.000103
v -0.002698 0.010898 0.000103
v 0.003807 0.009950 0.000103
v 0.003496 0.009578 0.000103
v 0.003830 0.009637 0.000103
v 0.002466 0.011141 0.000103
v 0.001764 0.010298 0.000103
v 0.002114 0.011121 0.000103
v -0.007366 0.010442 0.000103
v -0.007791 0.009877 0.000103
v -0.007737 0.010203 0.000103
v 0.008212 0.009298 0.000103
v 0.008212 0.011441 0.000103
v -0.008226 0.011441 0.000103
v -0.008226 0.009298 0.000103
v 0.007383 0.011441 -0.000086
v 0.005596 0.009298 -0.000086
v 0.005050 0.011441 -0.000086
v 0.003262 0.009298 -0.000086
v 0.002717 0.011441 -0.000086
v 0.000929 0.009298 -0.000086
v 0.000384 0.011441 -0.000086
v -0.001404 0.009298 -0.000086
v -0.001949 0.011441 -0.000086
v -0.003737 0.009298 -0.000086
v -0.004282 0.011441 -0.000086
v -0.006070 0.009298 -0.000086
v -0.006615 0.011441 -0.000086
v -0.002280 0.011044 -0.000086
v -0.002673 0.010574 -0.000086
v -0.002698 0.010898 -0.000086
v 0.003807 0.009950 -0.000086
v 0.003496 0.009578 -0.000086
v 0.003830 0.009637 -0.000086
v 0.002466 0.011141 -0.000086
v 0.001764 0.010298 -0.000086
v 0.002114 0.011121 -0.000086
v -0.007366 0.010442 -0.000086
v -0.007791 0.009877 -0.000086
v -0.007737 0.010203 -0.000086
v 0.008212 0.011441 -0.000086
v 0.008212 0.009298 -0.000086
v -0.008226 0.009298 -0.000086
v -0.008226 0.011441 -0.000086
v 0.008788 0.008374 0.000298
v -0.008802 0.008374 0.000298
v -0.008802 0.008374 -0.000282
v 0.008788 0.008374 -0.000282
vt 0.414613 0.013880
vt 0.414613 0.013880
vt 0.414613 0.013880
vt 0.414613 0.013880
vt 0.414613 0.013880
vt 0.414613 0.013880
vt 0.414613 0.013880
vt 0.414613 0.013880
vt 0.414613 0.013880
vt 0.414613 0.013880
vt 0.414613 0.013880
vt 0.414613 0.013880
vt 0.414613 0.013880
vt 0.414613 0.013880
vt 0.414613 0.013880
vt 0.414613 0.013880
vt 0.414613 0.013880
vt 0.414613 0.013880
vt 0.414613 0.013880
vt 0.414613 0.013880
vt 0.414613 0.013880
vt 0.414613 0.013880
vt 0.414613 0.013880
vt 0.414613 0.013880
vt 0.414613 0.013880
vt 0.414613 0.013880
vt 0.416762 0.007998
vt 0.416762 0.007998
vt 0.416762 0.007998
vt 0.416762 0.007998
vt 0.416762 0.007998
vt 0.416762 0.007998
vt 0.416762 0.007998
vt 0.416762 0.007998
vt 0.416762 0.007998
vt 0.416762 0.007998
vt 0.416762 0.007998
vt 0.416762 0.007998
vt 0.416762 0.007998
vt 0.416762 0.007998
vt 0.416762 0.007998
vt 0.416762 0.007998
vt 0.416762 0.007998
vt 0.416762 0.007998
vt 0.416762 0.007998
vt 0.416762 0.007998
vt 0.416762 0.007998
vt 0.416762 0.007998
vt 0.416762 0.007998
vt 0.416762 0.007998
vt 0.416762 0.007998
vt 0.416762 0.007998
vt 0.416762 0.007998
vt 0.416762 0.007998
vt 0.361641 0.012591
vt 0.361641 0.012591
vt 0.361641 0.012591
vt 0.361641 0.012591
vt 0.361641 0.012591
vt 0.361641 0.012591
vt 0.361641 0.012591
vt 0.361641 0.012591
vt 0.416762 0.007998
vt 0.416762 0.007998
vt 0.416762 0.007998
vt 0.416762 0.007998
vt 0.416762 0.007998
vt 0.416762 0.007998
vt 0.416762 0.007998
vt 0.416762 0.007998
vt 0.416762 0.007998
vt 0.416762 0.007998
vt 0.416762 0.007998
vt 0.416762 0.007998
vt 0.416762 0.007998
vt 0.416762 0.007998
vt 0.416762 0.007998
vt 0.416762 0.007998
vt 0.416762 0.007998
vt 0.416762 0.007998
vt 0.416762 0.007998
vt 0.416762 0.007998
vt 0.416762 0.007998
vt 0.416762 0.007998
vt 0.416762 0.007998
vt 0.416762 0.007998
vt 0.416762 0.007998
vt 0.416762 0.007998
vt 0.416762 0.007998
vt 0.416762 0.007998
vt 0.416762 0.007998
vt 0.416762 0.007998
vt 0.416762 0.007998
vt 0.416762 0.007998
vt 0.416762 0.007998
vt 0.416762 0.007998
vt 0.416762 0.007998
vt 0.416762 0.007998
vt 0.361641 0.012591
vt 0.361641 0.012591
vt 0.361641 0.012591
vt 0.361641 0.012591
vt 0.361641 0.012591
vt 0.361641 0.012591
vt 0.361641 0.012591
vt 0.361641 0.012591
vt 0.416762 0.007998
vt 0.416762 0.007998
vt 0.416762 0.007998
vt 0.416762 0.007998
vt 0.416762 0.007998
vt 0.416762 0.007998
vt 0.416762 0.007998
vt 0.416762 0.007998
vt 0.400513 0.443427
vt 0.400513 0.443427
vt 0.400513 0.443427
vt 0.400513 0.443427
vt 0.137082 0.447326
vt 0.137082 0.447326
vt 0.137082 0.447326
vt 0.137082 0.447326
vt 0.137082 0.447326
vt 0.137082 0.447326
vt 0.137082 0.447326
vt 0.400513 0.443427
vt 0.400513 0.443427
vt 0.400513 0.443427
vt 0.400513 0.443427
vt 0.400513 0.443427
vt 0.400513 0.443427
vt 0.400513 0.443427
vt 0.400513 0.443427
vt 0.137082 0.447326
vt 0.137082 0.447326
vt 0.137082 0.447326
vt 0.137082 0.447326
vt 0.137082 0.447326
vt 0.137082 0.447326
vt 0.137082 0.447326
vt 0.400513 0.443427
vt 0.400513 0.443427
vt 0.400513 0.443427
vt 0.400513 0.443427
vt 0.400513 0.443427
vt 0.400513 0.443427
vt 0.137082 0.447326
vt 0.137082 0.447326
vt 0.137082 0.447326
vt 0.137082 0.447326
vt 0.400513 0.443427
vt 0.400513 0.443427
vt 0.400513 0.443427
vt 0.400513 0.443427
vt 0.400513 0.443427
vt 0.400513 0.443427
vt 0.137082 0.447326
vt 0.137082 0.447326
vt 0.137082 0.447326
vt 0.137082 0.447326
vt 0.137082 0.447326
vt 0.137082 0.447326
vt 0.399959 0.443984
vt 0.399959 0.443984
vt 0.399959 0.443984
vt 0.399959 0.443984
vt 0.399959 0.443984
vt 0.399959 0.443984
vt 0.399959 0.443984
vt 0.399959 0.443984
vt 0.399959 0.443984
vt 0.401627 0.442870
vt 0.401627 0.442870
vt 0.401627 0.442870
vt 0.137082 0.447326
vt 0.137082 0.447326
vt 0.137082 0.447326
vt 0.137817 0.447326
vt 0.137817 0.447326
vt 0.137817 0.447326
vt 0.400513 0.443427
vt 0.400513 0.443427
vt 0.400513 0.443427
vt 0.400513 0.443427
vt 0.137082 0.447326
vt 0.137082 0.447326
vt 0.137082 0.447326
vt 0.137082 0.447326
vt 0.137082 0.447326
vt 0.137082 0.447326
vt 0.137082 0.447326
vt 0.400513 0.443427
vt 0.400513 0.443427
vt 0.400513 0.443427
vt 0.400513 0.443427
vt 0.400513 0.443427
vt 0.400513 0.443427
vt 0.400513 0.443427
vt 0.400513 0.443427
vt 0.137082 0.447326
vt 0.137082 0.447326
vt 0.137082 0.447326
vt 0.137082 0.447326
vt 0.137082 0.447326
vt 0.137082 0.447326
vt 0.137082 0.447326
vt 0.400513 0.443427
vt 0.400513 0.443427
vt 0.400513 0.443427
vt 0.400513 0.443427
vt 0.400513 0.443427
vt 0.400513 0.443427
vt 0.137082 0.447326
vt 0.137082 0.447326
vt 0.137082 0.447326
vt 0.137082 0.447326
vt 0.400513 0.443427
vt 0.400513 0.443427
vt 0.400513 0.443427
vt 0.400513 0.443427
vt 0.400513 0.443427
vt 0.400513 0.443427
vt 0.137082 0.447326
vt 0.137082 0.447326
vt 0.137082 0.447326
vt 0.137082 0.447326
vt 0.137082 0.447326
vt 0.137082 0.447326
vt 0.399959 0.443984
vt 0.399959 0.443984
vt 0.399959 0.443984
vt 0.399959 0.443984
vt 0.399959 0.443984
vt 0.399959 0.443984
vt 0.399959 0.443984
vt 0.399959 0.443984
vt 0.399959 0.443984
vt 0.401627 0.442870
vt 0.401627 0.442870
vt 0.401627 0.442870
vt 0.137082 0.447326
vt 0.137082 0.447326
vt 0.137082 0.447326
vt 0.414613 0.013880
vt 0.414613 0.013880
vn -0.7071 0.0000 -0.7071
vn 0.7071 0.0000 -0.7071
vn -1.0000 -0.0000 0.0000
vn 0.0000 -0.0000 1.0000
vn 0.0000 1.0000 0.0000
vn 0.0000 -1.0000 0.0000
vn 1.0000 0.0000 0.0000
vn -0.0000 0.0000 -1.0000
vn 0.0000 -0.1957 -0.9807
vn 0.0000 0.2305 0.9731
vn 0.0000 0.2335 0.9723
vn 0.0000 0.2303 -0.9731
vn 0.0000 0.2335 -0.9724
vn 0.0000 -0.1953 0.9808
vn 0.0000 0.2436 -0.9699
vn 0.0000 -0.2174 0.9761
vn 0.0000 -0.2174 -0.9761
vn 0.0000 0.2436 0.9699
vn 0.0000 0.9992 0.0396
vn 0.0000 -0.9997 -0.0238
vn -0.9690 -0.0552 -0.2407
vn -0.9516 -0.3071 -0.0118
vn -0.9699 -0.0544 0.2372
vn -0.9526 0.3040 0.0070
vn 0.9690 -0.0552 -0.2407
vn 0.9526 0.3040 0.0070
vn 0.9699 -0.0544 0.2372
vn 0.9516 -0.3071 -0.0118
vn -0.9692 -0.0551 -0.2402
vn -0.9518 -0.3065 -0.0118
vn -0.9701 -0.0543 0.2366
vn -0.9528 0.3034 0.0070
vn 0.9690 -0.0553 -0.2410
vn 0.9525 0.3043 0.0071
vn 0.9699 -0.0544 0.2374
vn 0.9515 -0.3074 -0.0118
vn 0.7071 -0.0000 0.7071
vn -0.7071 -0.0000 0.7071
usemtl lambert1.001
s 1
f 29/30/15 30/31/16 174/32/16 173/33/15
f 17/34/17 19/35/17 31/36/17 29/30/17
f 17/34/18 18/37/18 22/38/18 21/39/18
f 18/37/18 20/40/18 23/41/18 22/38/18
f 20/40/18 19/35/18 24/42/18 23/41/18
f 19/35/18 17/34/18 21/39/18 24/42/18
f 21/39/19 22/38/19 26/43/19 25/44/19
f 22/38/17 23/41/17 27/45/17 26/43/17
f 23/41/20 24/42/20 28/46/20 27/45/20
f 24/42/21 21/39/21 25/44/21 28/46/21
f 20/40/19 32/47/19 31/36/19 19/35/19
f 18/37/21 30/31/21 32/47/21 20/40/21
f 29/30/22 33/48/22 34/49/22 30/31/22
f 30/31/22 34/49/22 35/50/22 32/47/22
f 32/47/22 35/50/22 36/51/22 31/36/22
f 31/36/22 36/51/22 33/48/22 29/30/22
f 33/48/19 37/52/19 38/53/19 34/49/19
f 34/49/17 38/53/17 39/54/17 35/50/17
f 35/50/20 39/54/20 40/55/20 36/51/20
f 36/51/21 40/55/21 37/52/21 33/48/21
f 49/56/20 50/57/20 51/58/20 52/59/20
f 43/60/19 44/61/19 46/62/19 45/63/19
f 53/64/20 54/65/20 55/66/20 56/67/20
f 47/68/20 48/69/20 42/70/20 41/71/20
f 42/70/21 48/69/21 46/62/21 44/61/21
f 47/68/17 41/71/17 43/60/17 45/63/17
f 41/71/23 42/70/23 61/72/23 62/73/23
f 42/70/21 44/61/21 64/74/21 61/72/21
f 44/61/24 43/60/24 63/75/25 64/74/25
f 43/60/17 41/71/17 62/73/17 63/75/17
f 45/63/26 46/62/26 66/76/27 67/77/27
f 46/62/21 48/69/21 65/78/21 66/76/21
f 48/69/28 47/68/28 68/79/28 65/78/28
f 47/68/17 45/63/17 67/77/17 68/79/17
f 66/76/21 57/80/21 55/66/21 54/65/21
f 67/77/27 66/76/27 54/65/29 53/64/29
f 58/81/17 67/77/17 53/64/17 56/67/17
f 57/80/30 58/81/30 56/67/30 55/66/30
f 60/82/31 59/83/31 50/57/31 49/56/31
f 63/75/17 60/82/17 49/56/17 52/59/17
f 64/74/25 63/75/25 52/59/32 51/58/32
f 59/83/21 64/74/21 51/58/21 50/57/21
f 63/75/17 62/73/17 60/82/17
f 61/72/21 64/74/21 59/83/21
f 66/76/21 65/78/21 57/80/21
f 68/79/17 67/77/17 58/81/17
f 70/84/17 69/85/17 71/86/17 72/87/17
f 65/78/33 68/79/33 62/73/33 61/72/33
f 73/88/21 74/89/21 75/90/21 76/91/21
f 57/80/34 59/83/34 60/82/34 58/81/34
f 60/82/35 62/73/35 69/92/35 70/93/35
f 62/73/36 68/79/36 71/94/36 69/92/36
f 68/79/37 58/81/37 72/95/37 71/94/37
f 58/81/38 60/82/38 70/93/38 72/95/38
f 61/72/39 59/83/39 74/96/39 73/97/39
f 59/83/40 57/80/40 75/98/40 74/96/40
f 57/80/41 65/78/41 76/99/41 75/98/41
f 65/78/42 61/72/42 73/97/42 76/99/42
f 85/100/20 86/101/20 87/102/20 88/103/20
f 79/104/19 80/105/19 82/106/19 81/107/19
f 89/108/20 90/109/20 91/110/20 92/111/20
f 83/112/20 84/113/20 78/114/20 77/115/20
f 78/114/21 84/113/21 82/106/21 80/105/21
f 83/112/17 77/115/17 79/104/17 81/107/17
f 77/115/23 78/114/23 97/116/23 98/117/23
f 78/114/21 80/105/21 100/118/21 97/116/21
f 80/105/24 79/104/24 99/119/25 100/118/25
f 79/104/17 77/115/17 98/117/17 99/119/17
f 81/107/26 82/106/26 102/120/27 103/121/27
f 82/106/21 84/113/21 101/122/21 102/120/21
f 84/113/28 83/112/28 104/123/28 101/122/28
f 83/112/17 81/107/17 103/121/17 104/123/17
f 102/120/21 93/124/21 91/110/21 90/109/21
f 103/121/27 102/120/27 90/109/29 89/108/29
f 94/125/17 103/121/17 89/108/17 92/111/17
f 93/124/30 94/125/30 92/111/30 91/110/30
f 96/126/31 95/127/31 86/101/31 85/100/31
f 99/119/17 96/126/17 85/100/17 88/103/17
f 100/118/25 99/119/25 88/103/32 87/102/32
f 95/127/21 100/118/21 87/102/21 86/101/21
f 99/119/17 98/117/17 96/126/17
f 97/116/21 100/118/21 95/127/21
f 102/120/21 101/122/21 93/124/21
f 104/123/17 103/121/17 94/125/17
f 106/128/17 105/129/17 107/130/17 108/131/17
f 101/122/33 104/123/33 98/117/33 97/116/33
f 109/132/21 110/133/21 111/134/21 112/135/21
f 93/124/34 95/127/34 96/126/34 94/125/34
f 96/126/43 98/117/43 105/136/43 106/137/43
f 98/117/44 104/123/44 107/138/44 105/136/44
f 104/123/45 94/125/45 108/139/45 107/138/45
f 94/125/46 96/126/46 106/137/46 108/139/46
f 97/116/47 95/127/47 110/140/47 109/141/47
f 95/127/48 93/124/48 111/142/48 110/140/48
f 93/124/49 101/122/49 112/143/49 111/142/49
f 101/122/50 97/116/50 109/141/50 112/143/50
f 114/144/18 138/145/18 139/146/18 113/147/18
f 116/148/18 114/149/18 130/150/18
f 113/151/18 115/152/18 114/149/18
f 130/150/18 114/149/18 131/153/18
f 115/152/18 129/154/18 114/149/18
f 114/149/18 129/154/18 131/153/18
f 118/155/18 116/156/18 133/157/18
f 116/156/18 130/158/18 133/157/18
f 130/158/18 129/159/18 133/157/18
f 129/159/18 115/160/18 133/157/18
f 133/157/18 115/160/18 132/161/18
f 115/160/18 117/162/18 132/161/18
f 120/163/18 118/164/18 119/165/18
f 118/164/18 133/166/18 119/165/18
f 133/166/18 134/167/18 119/165/18
f 117/168/18 119/165/18 132/169/18
f 134/167/18 132/169/18 119/165/18
f 122/170/18 120/171/18 127/172/18
f 120/171/18 119/173/18 127/172/18
f 127/172/18 119/173/18 126/174/18
f 119/173/18 121/175/18 126/174/18
f 124/176/18 122/177/18 127/178/18 128/179/18
f 141/180/18 124/181/18 123/182/18 125/183/18 135/184/18 136/185/18
f 141/186/18 136/187/18 140/188/18
f 136/187/18 137/189/18 140/188/18
f 137/189/18 135/190/18 140/188/18
f 135/190/18 125/191/18 140/188/18
f 126/192/18 128/193/18 127/194/18
f 130/195/18 131/196/18 129/197/18
f 132/198/18 134/199/18 133/200/18
f 135/201/18 137/202/18 136/203/18
f 121/204/18 123/205/18 126/206/18
f 124/207/18 128/208/18 123/209/18
f 128/179/18 126/206/18 123/205/18
f 143/210/22 142/211/22 167/212/22 168/213/22
f 145/214/22 159/215/22 143/216/22
f 142/217/22 143/216/22 144/218/22
f 159/215/22 160/219/22 143/216/22
f 144/218/22 143/216/22 158/220/22
f 143/216/22 160/219/22 158/220/22
f 147/221/22 162/222/22 145/223/22
f 145/223/22 162/222/22 159/224/22
f 159/224/22 162/222/22 158/225/22
f 158/225/22 162/222/22 144/226/22
f 162/222/22 161/227/22 144/226/22
f 144/226/22 161/227/22 146/228/22
f 149/229/22 148/230/22 147/231/22
f 147/231/22 148/230/22 162/232/22
f 162/232/22 148/230/22 163/233/22
f 146/234/22 161/235/22 148/230/22
f 163/233/22 148/230/22 161/235/22
f 151/236/22 156/237/22 149/238/22
f 149/238/22 156/237/22 148/239/22
f 156/237/22 155/240/22 148/239/22
f 148/239/22 155/240/22 150/241/22
f 153/242/22 157/243/22 156/244/22 151/245/22
f 169/246/22 165/247/22 164/248/22 154/249/22 152/250/22 153/251/22
f 169/252/22 170/253/22 165/254/22
f 165/254/22 170/253/22 166/255/22
f 166/255/22 170/253/22 164/256/22
f 164/256/22 170/253/22 154/257/22
f 155/258/22 156/259/22 157/260/22
f 159/261/22 158/262/22 160/263/22
f 161/264/22 162/265/22 163/266/22
f 164/267/22 165/268/22 166/269/22
f 150/270/22 155/271/22 152/272/22
f 153/242/22 152/272/22 157/243/22
f 157/243/22 152/272/22 155/271/22
f 171/273/20 172/274/20 173/33/20 174/32/20
f 30/31/16 18/37/51 171/273/51 174/32/16
f 17/34/52 29/30/15 173/33/15 172/274/52
f 18/37/51 17/34/52 172/274/52 171/273/51
