# Blender v2.90.1 OBJ File: ''
# www.blender.org
mtllib diamond.mtl
o Cone
v 0.000000 1.517180 0.715017
v 0.559022 1.517180 0.445806
v 0.697090 1.517181 -0.159106
v 0.310234 1.517181 -0.644207
v -0.310234 1.517181 -0.644207
v -0.697090 1.517181 -0.159106
v -0.559023 1.517180 0.445806
v -0.000000 -0.162593 -0.000000
v 0.000000 1.000000 1.000000
v 0.781832 1.000000 0.623490
v 0.974928 1.000000 -0.222521
v 0.433884 1.000000 -0.900969
v -0.433884 1.000000 -0.900969
v -0.974928 1.000000 -0.222521
v -0.781832 1.000000 0.623490
vt 0.138083 0.438665
vt 0.138083 0.439081
vt 0.137758 0.438822
vt 0.137758 0.412599
vt 0.138083 0.412858
vt 0.137677 0.412950
vt 0.137902 0.413232
vt 0.137902 0.439916
vt 0.138083 0.439542
vt 0.138263 0.439916
vt 0.138263 0.421076
vt 0.138083 0.420702
vt 0.138488 0.420794
vt 0.137217 0.402795
vt 0.136985 0.402906
vt 0.136927 0.403158
vt 0.137088 0.403359
vt 0.137346 0.403359
vt 0.137507 0.403158
vt 0.137449 0.402906
vt 0.138488 0.401492
vt 0.138083 0.401400
vt 0.138407 0.401141
vt 0.138407 0.412599
vt 0.138083 0.412442
vt 0.138964 0.440499
vt 0.138082 0.440924
vt 0.138082 0.441374
vt 0.139316 0.440779
vt 0.138057 0.420786
vt 0.136647 0.426962
vt 0.138922 0.428775
vt 0.140893 0.420139
vt 0.137088 0.402206
vt 0.136927 0.402004
vt 0.136812 0.402031
vt 0.137037 0.402313
vt 0.137346 0.413126
vt 0.137088 0.413126
vt 0.137037 0.413232
vt 0.137397 0.413232
vt 0.137507 0.439301
vt 0.137346 0.439502
vt 0.137397 0.439609
vt 0.137622 0.439327
vt 0.137449 0.412673
vt 0.137507 0.412924
vt 0.137622 0.412950
vt 0.137542 0.412599
vt 0.137217 0.412561
vt 0.137217 0.412442
vn 0.3430 -0.6126 0.7122
vn 0.7706 -0.6126 0.1759
vn 0.6180 -0.6126 -0.4928
vn -0.0000 -0.6126 -0.7904
vn -0.6180 -0.6126 -0.4928
vn -0.0000 1.0000 0.0000
vn -0.7706 -0.6126 0.1759
vn -0.3430 -0.6126 0.7122
vn 0.3886 0.4447 0.8070
vn 0.8732 0.4447 0.1993
vn 0.7003 0.4447 -0.5585
vn 0.0000 0.4447 -0.8957
vn -0.7003 0.4447 -0.5585
vn -0.8732 0.4447 0.1993
vn -0.3886 0.4447 0.8070
usemtl Material.001
s off
f 9/1/1 8/2/1 10/3/1
f 10/4/2 8/5/2 11/6/2
f 11/6/3 8/5/3 12/7/3
f 12/8/4 8/9/4 13/10/4
f 13/11/5 8/12/5 14/13/5
f 1/14/6 2/15/6 3/16/6 4/17/6 5/18/6 6/19/6 7/20/6
f 14/21/7 8/22/7 15/23/7
f 15/24/8 8/5/8 9/25/8
f 2/26/9 1/27/9 9/28/9 10/29/9
f 3/30/10 2/31/10 10/32/10 11/33/10
f 4/34/11 3/35/11 11/36/11 12/37/11
f 5/38/12 4/39/12 12/40/12 13/41/12
f 6/42/13 5/43/13 13/44/13 14/45/13
f 7/46/14 6/47/14 14/48/14 15/49/14
f 1/50/15 7/46/15 15/49/15 9/51/15
