# Blender v2.90.1 OBJ File: ''
# www.blender.org
mtllib road_yellow_line.mtl
o SM_Env_Road_YellowLines_02_Mesh
v 0.024213 0.000000 -0.006250
v 0.025000 0.000000 -0.006250
v 0.024213 0.000000 -0.007882
v 0.025000 0.000000 -0.018750
v 0.024213 0.000000 -0.018750
v 0.024213 0.000000 -0.011073
v 0.024448 0.000000 -0.009578
v 0.024213 0.000000 -0.031250
v 0.025000 0.000000 -0.031250
v 0.024213 0.000000 -0.042798
v 0.025000 0.000000 -0.043750
v 0.024628 0.000000 -0.043750
v 0.001577 0.000000 0.000000
v 0.001869 0.000000 -0.018262
v 0.000969 0.000000 -0.018262
v 0.000677 0.000000 0.000000
v 0.001577 0.000000 -0.050000
v 0.000677 0.000000 -0.050000
v 0.025000 0.000000 0.000000
v 0.025000 0.000000 -0.050000
v 0.024213 0.000000 -0.043750
v 0.000000 0.000000 -0.025000
v 0.000000 0.000000 0.000000
v 0.000000 0.000000 -0.050000
v 0.024213 -0.002637 -0.006250
v 0.025000 -0.002637 -0.006250
v 0.024213 -0.002637 -0.007882
v 0.025000 -0.002637 -0.018750
v 0.024213 -0.002637 -0.018750
v 0.024213 -0.002637 -0.011073
v 0.024448 -0.002637 -0.009578
v 0.024213 -0.002637 -0.031250
v 0.025000 -0.002637 -0.031250
v 0.024213 -0.002637 -0.042798
v 0.025000 -0.002637 -0.043750
v 0.024628 -0.002637 -0.043750
v 0.001577 -0.002637 -0.000000
v 0.001869 -0.002637 -0.018262
v 0.000969 -0.002637 -0.018262
v 0.000677 -0.002637 -0.000000
v 0.001577 -0.002637 -0.050000
v 0.000677 -0.002637 -0.050000
v 0.025000 -0.002637 -0.000000
v 0.025000 -0.002637 -0.050000
v 0.024213 -0.002637 -0.043750
v 0.000000 -0.002637 -0.025000
v 0.000000 -0.002637 -0.000000
v 0.000000 -0.002637 -0.050000
v -0.004544 0.000000 -0.025000
v -0.004544 0.000000 0.000000
v -0.004544 0.000000 -0.050000
v -0.004544 -0.002637 -0.025000
v -0.004544 -0.002637 -0.000000
v -0.004544 -0.002637 -0.050000
vt 0.009445 0.005709
vt 0.009445 0.005709
vt 0.009445 0.005709
vt 0.009445 0.005709
vt 0.009445 0.005709
vt 0.009445 0.005709
vt 0.009445 0.005709
vt 0.009445 0.005709
vt 0.009445 0.005709
vt 0.009445 0.005709
vt 0.009445 0.005709
vt 0.009445 0.005709
vt 0.026995 0.006992
vt 0.026995 0.006992
vt 0.026995 0.006992
vt 0.026995 0.006992
vt 0.026995 0.006992
vt 0.026995 0.006992
vt 0.951793 0.625465
vt 0.951793 0.384693
vt 0.982241 0.384693
vt 0.982241 0.625465
vt 0.982241 0.143920
vt 0.951793 0.143920
vt 0.076268 0.023534
vt 0.982241 0.023534
vt 0.982241 0.866238
vt 0.982241 0.986624
vt 0.967835 0.866238
vt 0.951793 0.866238
vt 0.076268 0.986624
vt 0.087561 0.375287
vt 0.951793 0.175349
vt 0.960895 0.208025
vt 0.951793 0.236823
vt 0.951793 0.847900
vt 0.041473 0.023534
vt 0.052765 0.375287
vt 0.015274 0.505079
vt 0.015274 0.023534
vt 0.041473 0.986624
vt 0.015274 0.986624
vt 0.009445 0.005709
vt 0.009445 0.005709
vt 0.009445 0.005709
vt 0.009445 0.005709
vt 0.009445 0.005709
vt 0.009445 0.005709
vt 0.009445 0.005709
vt 0.009445 0.005709
vt 0.009445 0.005709
vt 0.009445 0.005709
vt 0.009445 0.005709
vt 0.009445 0.005709
vt 0.026995 0.006992
vt 0.026995 0.006992
vt 0.026995 0.006992
vt 0.026995 0.006992
vt 0.026995 0.006992
vt 0.026995 0.006992
vt 0.951793 0.625465
vt 0.982241 0.625465
vt 0.982241 0.384693
vt 0.951793 0.384693
vt 0.982241 0.143920
vt 0.982241 0.023534
vt 0.076268 0.023534
vt 0.951793 0.143920
vt 0.982241 0.866238
vt 0.967835 0.866238
vt 0.982241 0.986624
vt 0.951793 0.866238
vt 0.076268 0.986624
vt 0.087561 0.375287
vt 0.951793 0.175349
vt 0.951793 0.236823
vt 0.960895 0.208025
vt 0.951793 0.847900
vt 0.041473 0.023534
vt 0.015274 0.023534
vt 0.015274 0.505079
vt 0.052765 0.375287
vt 0.015274 0.986624
vt 0.041473 0.986624
vt 0.015274 0.505079
vt 0.015274 0.023534
vt 0.015274 0.986624
vt 0.015274 0.986624
vt 0.015274 0.505079
vt 0.015274 0.023534
vn 0.0000 1.0000 0.0000
vn 0.0000 -1.0000 0.0000
vn 0.0000 0.0000 -1.0000
vn 1.0000 0.0000 0.0000
vn 0.0000 -0.0000 1.0000
vn -1.0000 0.0000 0.0000
usemtl blinn269
s off
f 1/1/1 2/2/1 3/3/1
f 4/4/1 5/5/1 2/2/1
f 5/5/1 6/6/1 2/2/1
f 6/6/1 7/7/1 2/2/1
f 2/2/1 7/7/1 3/3/1
f 8/8/1 9/9/1 10/10/1
f 11/11/1 12/12/1 9/9/1
f 9/9/1 12/12/1 10/10/1
f 13/13/1 14/14/1 15/15/1 16/16/1
f 15/15/1 14/14/1 17/17/1 18/18/1
f 8/19/1 5/20/1 4/21/1 9/22/1
f 2/23/1 1/24/1 13/25/1 19/26/1
f 11/27/1 20/28/1 12/29/1
f 12/29/1 20/28/1 21/30/1
f 17/31/1 21/30/1 20/28/1
f 8/19/1 14/32/1 5/20/1
f 3/33/1 7/34/1 6/35/1
f 10/36/1 12/29/1 21/30/1
f 14/32/1 8/19/1 17/31/1
f 21/30/1 17/31/1 10/36/1
f 8/19/1 10/36/1 17/31/1
f 13/25/1 1/24/1 14/32/1
f 1/24/1 3/33/1 14/32/1
f 3/33/1 6/35/1 14/32/1
f 5/20/1 14/32/1 6/35/1
f 16/37/1 15/38/1 22/39/1 23/40/1
f 22/39/1 15/38/1 18/41/1 24/42/1
f 25/43/2 27/44/2 26/45/2
f 28/46/2 26/45/2 29/47/2
f 29/47/2 26/45/2 30/48/2
f 30/48/2 26/45/2 31/49/2
f 26/45/2 27/44/2 31/49/2
f 32/50/2 34/51/2 33/52/2
f 35/53/2 33/52/2 36/54/2
f 33/52/2 34/51/2 36/54/2
f 37/55/2 40/56/2 39/57/2 38/58/2
f 39/57/2 42/59/2 41/60/2 38/58/2
f 32/61/2 33/62/2 28/63/2 29/64/2
f 26/65/2 43/66/2 37/67/2 25/68/2
f 35/69/2 36/70/2 44/71/2
f 36/70/2 45/72/2 44/71/2
f 41/73/2 44/71/2 45/72/2
f 32/61/2 29/64/2 38/74/2
f 27/75/2 30/76/2 31/77/2
f 34/78/2 45/72/2 36/70/2
f 38/74/2 41/73/2 32/61/2
f 45/72/2 34/78/2 41/73/2
f 32/61/2 41/73/2 34/78/2
f 37/67/2 38/74/2 25/68/2
f 25/68/2 38/74/2 27/75/2
f 27/75/2 38/74/2 30/76/2
f 29/64/2 30/76/2 38/74/2
f 40/79/2 47/80/2 46/81/2 39/82/2
f 46/81/2 48/83/2 42/84/2 39/82/2
f 20/28/3 44/71/3 41/73/3 17/31/3
f 18/41/3 42/84/3 48/83/3 24/42/3
f 19/26/4 43/66/4 26/65/4 2/23/4
f 9/9/4 33/52/4 35/53/4 11/11/4
f 13/25/5 37/67/5 43/66/5 19/26/5
f 11/27/4 35/69/4 44/71/4 20/28/4
f 23/40/5 47/80/5 40/79/5 16/37/5
f 17/17/3 41/60/3 42/59/3 18/18/3
f 22/39/1 49/85/1 50/86/1 23/40/1
f 2/2/4 26/45/4 28/46/4 4/4/4
f 16/16/5 40/56/5 37/55/5 13/13/5
f 48/83/3 54/87/3 51/88/3 24/42/3
f 4/21/4 28/63/4 33/62/4 9/22/4
f 49/85/6 52/89/6 53/90/6 50/86/6
f 51/88/6 54/87/6 52/89/6 49/85/6
f 46/81/2 52/89/2 54/87/2 48/83/2
f 24/42/1 51/88/1 49/85/1 22/39/1
f 23/40/5 50/86/5 53/90/5 47/80/5
f 47/80/2 53/90/2 52/89/2 46/81/2
o Cube_Cube.001
v -0.002878 0.004820 0.001475
v -0.002878 0.004820 -0.051268
v -0.001071 0.004820 0.001475
v -0.001071 0.004820 -0.051268
v -0.003025 0.003053 -0.051268
v -0.003025 0.003053 0.001475
v -0.000925 0.003053 -0.051268
v -0.000925 0.003053 0.001475
v -0.003025 0.003053 -0.051268
v -0.003025 0.003053 0.001475
v -0.000925 0.003053 -0.051268
v -0.000925 0.003053 0.001475
v -0.002432 0.007227 0.001475
v -0.002878 0.006633 0.001475
v -0.002603 0.007182 0.001475
v -0.002747 0.007053 0.001475
v -0.002844 0.006860 0.001475
v -0.002878 0.006633 -0.051268
v -0.002432 0.007227 -0.051268
v -0.002844 0.006860 -0.051268
v -0.002747 0.007053 -0.051268
v -0.002603 0.007182 -0.051268
v -0.001071 0.006633 0.001475
v -0.001517 0.007227 0.001475
v -0.001105 0.006860 0.001475
v -0.001202 0.007053 0.001475
v -0.001347 0.007182 0.001475
v -0.001517 0.007227 -0.051268
v -0.001071 0.006633 -0.051268
v -0.001347 0.007182 -0.051268
v -0.001202 0.007053 -0.051268
v -0.001105 0.006860 -0.051268
v -0.004231 0.000235 -0.051268
v -0.004319 0.000454 -0.051268
v -0.004298 0.000251 -0.051268
v -0.004338 0.000299 -0.051268
v -0.004346 0.000370 -0.051268
v -0.004319 0.000454 0.001475
v -0.004231 0.000235 0.001475
v -0.004346 0.000370 0.001475
v -0.004338 0.000299 0.001475
v -0.004298 0.000251 0.001475
v 0.000370 0.000454 -0.051268
v 0.000281 0.000235 -0.051268
v 0.000397 0.000370 -0.051268
v 0.000389 0.000299 -0.051268
v 0.000349 0.000251 -0.051268
v 0.000281 0.000235 0.001475
v 0.000370 0.000454 0.001475
v 0.000349 0.000251 0.001475
v 0.000389 0.000299 0.001475
v 0.000397 0.000370 0.001475
vt 0.686715 0.500000
vt 0.813285 0.500000
vt 0.813285 0.750000
vt 0.686715 0.750000
vt 0.375000 0.500000
vt 0.563285 0.500000
vt 0.563285 0.750000
vt 0.375000 0.750000
vt 0.375000 0.000000
vt 0.563285 0.000000
vt 0.563285 0.250000
vt 0.375000 0.250000
vt 0.375000 0.750000
vt 0.375000 0.500000
vt 0.586902 0.254698
vt 0.606924 0.268076
vt 0.620302 0.288098
vt 0.625000 0.311715
vt 0.625000 0.438285
vt 0.648832 0.487301
vt 0.618975 0.493975
vt 0.586902 0.498434
vt 0.375000 0.750000
vt 0.375000 0.500000
vt 0.375000 1.000000
vt 0.375000 1.000000
vt 0.375000 0.250000
vt 0.375000 0.000000
vt 0.375000 0.750000
vt 0.375000 0.500000
vt 0.375000 0.250000
vt 0.375000 0.000000
vt 0.375000 1.000000
vt 0.375000 0.499709
vt 0.375000 0.498938
vt 0.370575 0.497893
vt 0.375000 0.489934
vt 0.375000 0.260066
vt 0.375000 0.256322
vt 0.375000 0.253186
vt 0.375000 0.250872
vt 0.375000 0.250000
vt 0.375000 1.000000
vt 0.375000 0.999128
vt 0.375000 0.996814
vt 0.375000 0.993678
vt 0.375000 0.989933
vt 0.375000 0.760066
vt 0.370575 0.752107
vt 0.375000 0.751062
vt 0.375000 0.750291
vt 0.135066 0.500000
vt 0.364934 0.500000
vt 0.364934 0.750000
vt 0.135066 0.750000
vt 0.836902 0.500000
vt 0.836902 0.750000
vt 0.875000 0.500000
vt 0.875000 0.750000
vt 0.625000 0.000000
vt 0.625000 0.250000
vt 0.586902 0.250000
vt 0.586902 0.000000
vt 0.648832 0.762699
vt 0.618975 0.756025
vt 0.586902 0.751566
vt 0.625000 0.811715
vt 0.625000 0.938285
vt 0.620302 0.961902
vt 0.606924 0.981924
vt 0.586902 0.995302
vt 0.563285 1.000000
vt 0.131638 0.750000
vt 0.131638 0.500000
vt 0.125000 0.750000
vt 0.125000 0.500000
vt 0.375000 0.250000
vt 0.375000 0.000000
vt 0.375000 0.000000
vt 0.375000 0.250000
vt 0.375000 0.000000
vt 0.375000 0.026408
vt 0.375000 0.223592
vt 0.375000 0.223592
vt 0.375000 0.026408
vn 0.0000 1.0000 0.0000
vn 1.0000 0.0000 0.0000
vn -1.0000 0.0000 0.0000
vn 0.9966 0.0827 0.0000
vn 0.0000 0.0000 -1.0000
vn 0.0000 0.0000 1.0000
vn -0.9966 0.0827 0.0000
vn 0.8951 0.4458 0.0000
vn 0.0000 -1.0000 0.0000
vn -0.2562 0.9666 0.0000
vn -0.6650 0.7469 0.0000
vn -0.8939 0.4483 0.0000
vn -0.9890 0.1476 0.0000
vn 0.2562 0.9666 0.0000
vn 0.6650 0.7469 0.0000
vn 0.8939 0.4483 0.0000
vn 0.9890 0.1476 0.0000
vn -0.2408 -0.9706 0.0000
vn -0.7619 -0.6476 0.0000
vn -0.9947 -0.1032 0.0000
vn -0.9527 0.3038 0.0000
vn 0.2408 -0.9706 0.0000
vn 0.7619 -0.6476 0.0000
vn 0.9947 -0.1032 0.0000
vn 0.9527 0.3038 0.0000
vn -0.8951 0.4458 0.0000
usemtl blinn269
s off
f 82/91/7 73/92/7 67/93/7 78/94/7
f 58/95/8 83/96/8 77/97/8 57/98/8
f 55/99/9 68/100/9 72/101/9 56/102/9
f 58/95/10 57/98/10 62/103/10 61/104/10
f 56/102/11 72/101/11 74/105/11 75/106/11 76/107/11 73/108/11 82/109/11 84/110/11 85/111/11 86/112/11 83/96/11 58/95/11
f 61/104/12 62/103/12 66/113/12 65/114/12
f 57/98/12 55/115/12 60/116/12 62/103/12
f 56/102/11 58/95/11 61/104/11 59/117/11
f 55/99/13 56/102/13 59/117/13 60/118/13
f 65/114/14 66/113/14 103/119/14 97/120/14
f 60/118/12 59/117/12 63/121/12 64/122/12
f 62/103/12 60/116/12 64/123/12 66/113/12
f 59/117/12 61/104/12 65/114/12 63/121/12
f 63/121/11 65/114/11 97/120/11 99/124/11 100/125/11 101/126/11 98/127/11 87/128/11 89/129/11 90/130/11 91/131/11 88/132/11
f 66/113/12 64/123/12 92/133/12 94/134/12 95/135/12 96/136/12 93/137/12 102/138/12 104/139/12 105/140/12 106/141/12 103/119/12
f 87/142/15 98/143/15 102/144/15 93/145/15
f 67/93/16 73/92/16 76/146/16 69/147/16
f 69/147/17 76/146/17 75/148/17 70/149/17
f 70/150/18 75/151/18 74/152/18 71/153/18
f 71/153/19 74/152/19 72/101/19 68/100/19
f 82/91/20 78/94/20 81/154/20 84/110/20
f 84/110/21 81/154/21 80/155/21 85/111/21
f 85/111/22 80/155/22 79/156/22 86/112/22
f 86/112/23 79/156/23 77/97/23 83/96/23
f 57/98/12 77/97/12 79/156/12 80/155/12 81/154/12 78/157/12 67/158/12 69/159/12 70/160/12 71/161/12 68/162/12 55/115/12
f 87/142/24 93/145/24 96/163/24 89/164/24
f 89/164/25 96/163/25 95/165/25 90/166/25
f 90/167/26 95/168/26 94/169/26 91/170/26
f 91/170/27 94/169/27 92/171/27 88/132/27
f 102/144/28 98/143/28 101/126/28 104/139/28
f 104/139/29 101/126/29 100/125/29 105/140/29
f 105/140/30 100/125/30 99/124/30 106/141/30
f 106/141/31 99/124/31 97/120/31 103/119/31
f 64/172/32 63/173/32 88/174/32 92/175/32
