# Blender v2.90.1 OBJ File: ''
# www.blender.org
mtllib road_lines_mid.mtl
o SM_Env_Road_03_Mesh.002
v 0.024213 0.000000 -0.031250
v 0.024213 0.000000 -0.018750
v 0.025000 0.000000 -0.018750
v 0.025000 0.000000 -0.031250
v 0.000000 0.000000 0.000000
v 0.012500 0.000000 0.000000
v 0.000787 0.000000 -0.006250
v 0.000000 0.000000 -0.006250
v 0.000000 0.000000 -0.043750
v 0.000787 0.000000 -0.043750
v 0.012500 0.000000 -0.050000
v 0.000000 0.000000 -0.050000
v 0.025000 0.000000 -0.006250
v 0.024213 0.000000 -0.006250
v 0.025000 0.000000 0.000000
v 0.024213 0.000000 -0.042877
v 0.024727 0.000000 -0.043750
v 0.024213 0.000000 -0.043750
v 0.025000 0.000000 -0.043750
v 0.025000 0.000000 -0.050000
v 0.012500 0.000000 -0.025000
v 0.000787 0.000000 -0.031250
v 0.000787 0.000000 -0.036986
v 0.000787 0.000000 -0.041271
v 0.000000 0.000000 -0.031250
v 0.000000 0.000000 -0.018750
v 0.000787 0.000000 -0.018750
v 0.000586 0.000000 -0.039420
v 0.000787 0.000000 -0.009964
v 0.000546 0.000000 -0.008828
v 0.000787 0.000000 -0.007502
v 0.024213 0.000000 -0.015540
v 0.024428 0.000000 -0.016750
v 0.024213 0.000000 -0.017997
v 0.025000 0.000000 -0.018750
v 0.025000 0.000000 -0.031250
v 0.000000 0.000000 0.000000
v 0.012500 0.000000 0.000000
v 0.000000 0.000000 -0.006250
v 0.000000 0.000000 -0.043750
v 0.012500 0.000000 -0.050000
v 0.000000 0.000000 -0.050000
v 0.025000 0.000000 -0.006250
v 0.025000 0.000000 0.000000
v 0.025000 0.000000 -0.043750
v 0.025000 0.000000 -0.050000
v 0.000000 0.000000 -0.031250
v 0.000000 0.000000 -0.018750
v 0.024213 -0.002683 -0.031250
v 0.024213 -0.002683 -0.018750
v 0.025000 -0.002683 -0.018750
v 0.025000 -0.002683 -0.031250
v -0.000000 -0.002683 -0.000000
v 0.012500 -0.002683 -0.000000
v 0.000787 -0.002683 -0.006250
v -0.000000 -0.002683 -0.006250
v -0.000000 -0.002683 -0.043750
v 0.000787 -0.002683 -0.043750
v 0.012500 -0.002683 -0.050000
v -0.000000 -0.002683 -0.050000
v 0.025000 -0.002683 -0.006250
v 0.024213 -0.002683 -0.006250
v 0.025000 -0.002683 -0.000000
v 0.024213 -0.002683 -0.042877
v 0.024727 -0.002683 -0.043750
v 0.024213 -0.002683 -0.043750
v 0.025000 -0.002683 -0.043750
v 0.025000 -0.002683 -0.050000
v 0.012500 -0.002683 -0.025000
v 0.000787 -0.002683 -0.031250
v 0.000787 -0.002683 -0.036986
v 0.000787 -0.002683 -0.041271
v -0.000000 -0.002683 -0.031250
v -0.000000 -0.002683 -0.018750
v 0.000787 -0.002683 -0.018750
v 0.000586 -0.002683 -0.039420
v 0.000787 -0.002683 -0.009964
v 0.000546 -0.002683 -0.008828
v 0.000787 -0.002683 -0.007502
v 0.024213 -0.002683 -0.015540
v 0.024428 -0.002683 -0.016750
v 0.024213 -0.002683 -0.017997
vt 0.951793 0.625465
vt 0.951793 0.384693
vt 0.982243 0.384693
vt 0.982243 0.625465
vt 0.015275 0.023534
vt 0.498759 0.023534
vt 0.045724 0.143920
vt 0.015275 0.143920
vt 0.015275 0.866238
vt 0.045724 0.866238
vt 0.498759 0.986623
vt 0.015275 0.986623
vt 0.982243 0.143920
vt 0.951793 0.143920
vt 0.982243 0.023534
vt 0.951793 0.849415
vt 0.971692 0.866238
vt 0.951793 0.866238
vt 0.982243 0.866238
vt 0.982243 0.986623
vt 0.498759 0.505079
vt 0.045724 0.625465
vt 0.045724 0.735945
vt 0.045724 0.818488
vt 0.015275 0.625465
vt 0.015275 0.384693
vt 0.045724 0.384693
vt 0.037924 0.782837
vt 0.045724 0.215449
vt 0.036375 0.193569
vt 0.045724 0.168043
vt 0.951793 0.322866
vt 0.960129 0.346174
vt 0.951793 0.370190
vt 0.009445 0.005709
vt 0.009445 0.005709
vt 0.009445 0.005709
vt 0.009445 0.005709
vt 0.009445 0.005709
vt 0.009445 0.005709
vt 0.009445 0.005709
vt 0.009445 0.005709
vt 0.009445 0.005709
vt 0.009445 0.005709
vt 0.009445 0.005709
vt 0.009445 0.005709
vt 0.009445 0.005709
vt 0.009445 0.005709
vt 0.009445 0.005709
vt 0.009445 0.005709
vt 0.009445 0.005709
vt 0.009445 0.005709
vt 0.009445 0.005709
vt 0.009445 0.005709
vt 0.009445 0.005709
vt 0.009445 0.005709
vt 0.009445 0.005709
vt 0.009445 0.005709
vt 0.009445 0.005709
vt 0.009445 0.005709
vt 0.982243 0.384693
vt 0.982243 0.384693
vt 0.982243 0.625465
vt 0.982243 0.625465
vt 0.982243 0.986623
vt 0.982243 0.986623
vt 0.498759 0.986623
vt 0.498759 0.986623
vt 0.015275 0.986623
vt 0.015275 0.986623
vt 0.015275 0.866238
vt 0.015275 0.866238
vt 0.498759 0.023534
vt 0.498759 0.023534
vt 0.982243 0.023534
vt 0.982243 0.023534
vt 0.009445 0.005709
vt 0.009445 0.005709
vt 0.009445 0.005709
vt 0.009445 0.005709
vt 0.009445 0.005709
vt 0.009445 0.005709
vt 0.009445 0.005709
vt 0.009445 0.005709
vt 0.015275 0.625465
vt 0.015275 0.625465
vt 0.015275 0.384693
vt 0.015275 0.384693
vt 0.982243 0.866238
vt 0.982243 0.866238
vt 0.015275 0.023534
vt 0.015275 0.023534
vt 0.982243 0.143920
vt 0.982243 0.143920
vt 0.009445 0.005709
vt 0.009445 0.005709
vt 0.009445 0.005709
vt 0.009445 0.005709
vt 0.015275 0.143920
vt 0.015275 0.143920
vt 0.009445 0.005709
vt 0.009445 0.005709
vt 0.009445 0.005709
vt 0.009445 0.005709
vt 0.951793 0.625465
vt 0.951793 0.384693
vt 0.045724 0.143920
vt 0.045724 0.866238
vt 0.951793 0.143920
vt 0.951793 0.849415
vt 0.951793 0.866238
vt 0.971692 0.866238
vt 0.498759 0.505079
vt 0.045724 0.625465
vt 0.045724 0.735945
vt 0.045724 0.818488
vt 0.045724 0.384693
vt 0.037924 0.782837
vt 0.045724 0.215449
vt 0.045724 0.168043
vt 0.036375 0.193569
vt 0.951793 0.322866
vt 0.951793 0.370190
vt 0.960129 0.346174
vt 0.009445 0.005709
vt 0.009445 0.005709
vt 0.009445 0.005709
vt 0.009445 0.005709
vt 0.009445 0.005709
vt 0.009445 0.005709
vt 0.009445 0.005709
vt 0.009445 0.005709
vt 0.009445 0.005709
vt 0.009445 0.005709
vt 0.009445 0.005709
vt 0.009445 0.005709
vt 0.009445 0.005709
vt 0.009445 0.005709
vt 0.009445 0.005709
vt 0.009445 0.005709
vt 0.009445 0.005709
vt 0.009445 0.005709
vn 0.0000 1.0000 0.0000
vn 1.0000 0.0000 0.0000
vn 0.7071 0.0000 -0.7071
vn 0.0000 0.0000 -1.0000
vn -0.7071 0.0000 -0.7071
vn -1.0000 0.0000 0.0000
vn 0.0000 -0.0000 1.0000
vn 0.7071 0.0000 0.7071
vn -0.7071 -0.0000 0.7071
vn 0.0000 0.0000 0.0000
vn 0.0000 -1.0000 -0.0000
usemtl blinn269.002
s 1
f 1/1/1 2/2/1 3/3/1 4/4/1
f 5/5/1 6/6/1 7/7/1 8/8/1
f 9/9/1 10/10/1 11/11/1 12/12/1
f 13/13/1 14/14/1 6/6/1 15/15/1
f 16/16/1 17/17/1 18/18/1
f 19/19/1 20/20/1 17/17/1
f 17/17/1 20/20/1 18/18/1
f 11/11/1 18/18/1 20/20/1
f 21/21/1 11/11/1 22/22/1
f 22/22/1 11/11/1 23/23/1
f 23/23/1 11/11/1 24/24/1
f 11/11/1 10/10/1 24/24/1
f 22/22/1 25/25/1 26/26/1 27/27/1
f 1/1/1 21/21/1 2/2/1
f 24/24/1 28/28/1 23/23/1
f 29/29/1 30/30/1 31/31/1
f 21/21/1 27/27/1 6/6/1
f 27/27/1 29/29/1 6/6/1
f 29/29/1 31/31/1 6/6/1
f 31/31/1 7/7/1 6/6/1
f 22/22/1 27/27/1 21/21/1
f 32/32/1 33/33/1 34/34/1
f 11/11/1 21/21/1 18/18/1
f 18/18/1 21/21/1 16/16/1
f 1/1/1 16/16/1 21/21/1
f 21/21/1 6/6/1 2/2/1
f 2/2/1 6/6/1 34/34/1
f 34/34/1 6/6/1 32/32/1
f 6/6/1 14/14/1 32/32/1
f 9/35/1 25/36/1 28/37/1
f 28/37/1 25/36/1 22/38/1 23/39/1
f 9/35/1 28/37/1 24/40/1 10/41/1
f 26/42/1 8/43/1 30/44/1
f 30/44/1 8/43/1 7/45/1 31/46/1
f 26/42/1 30/44/1 29/47/1 27/48/1
f 14/49/1 13/50/1 32/51/1
f 2/52/1 34/53/1 3/54/1
f 34/53/1 33/55/1 3/54/1
f 3/54/1 33/55/1 13/50/1
f 13/50/1 33/55/1 32/51/1
f 1/56/1 4/57/1 16/58/1
f 19/59/1 17/60/1 4/57/1
f 4/57/1 17/60/1 16/58/1
f 35/61/2 51/62/2 52/63/2 36/64/2
f 46/65/3 68/66/3 59/67/4 41/68/4
f 42/69/5 60/70/5 57/71/6 40/72/6
f 38/73/7 54/74/7 63/75/8 44/76/8
f 36/77/2 52/78/2 67/79/2 45/80/2
f 48/81/6 74/82/6 56/83/6 39/84/6
f 47/85/6 73/86/6 74/87/6 48/88/6
f 45/89/2 67/90/2 68/66/3 46/65/3
f 37/91/9 53/92/9 54/74/7 38/73/7
f 44/76/8 63/75/8 61/93/2 43/94/2
f 43/95/2 61/96/2 51/97/2 35/98/2
f 39/99/6 56/100/6 53/92/9 37/91/9
f 40/101/6 57/102/6 73/103/6 47/104/6
f 41/68/4 59/67/4 60/70/5 42/69/5
f 11/11/7 41/68/7 42/69/10 12/12/10
f 9/35/10 40/101/10 47/104/10 25/36/10
f 8/8/10 39/99/10 37/91/10 5/5/10
f 13/50/10 43/95/10 35/98/10 3/54/10
f 15/15/10 44/76/10 43/94/10 13/13/10
f 5/5/10 37/91/10 38/73/7 6/6/7
f 19/19/10 45/89/10 46/65/10 20/20/10
f 25/25/10 47/85/10 48/88/10 26/26/10
f 26/42/10 48/81/10 39/84/10 8/43/10
f 4/57/10 36/77/10 45/80/10 19/59/10
f 6/6/7 38/73/7 44/76/10 15/15/10
f 12/12/10 42/69/10 40/72/10 9/9/10
f 20/20/10 46/65/10 41/68/7 11/11/7
f 3/3/10 35/61/10 36/64/10 4/4/10
f 49/105/11 52/63/11 51/62/11 50/106/11
f 53/92/11 56/100/11 55/107/11 54/74/11
f 57/71/11 60/70/11 59/67/11 58/108/11
f 61/93/11 63/75/11 54/74/11 62/109/11
f 64/110/11 66/111/11 65/112/11
f 67/90/11 65/112/11 68/66/11
f 65/112/11 66/111/11 68/66/11
f 59/67/11 68/66/11 66/111/11
f 69/113/11 70/114/11 59/67/11
f 70/114/11 71/115/11 59/67/11
f 71/115/11 72/116/11 59/67/11
f 59/67/11 72/116/11 58/108/11
f 70/114/11 75/117/11 74/87/11 73/86/11
f 49/105/11 50/106/11 69/113/11
f 72/116/11 71/115/11 76/118/11
f 77/119/11 79/120/11 78/121/11
f 69/113/11 54/74/11 75/117/11
f 75/117/11 54/74/11 77/119/11
f 77/119/11 54/74/11 79/120/11
f 79/120/11 54/74/11 55/107/11
f 70/114/11 69/113/11 75/117/11
f 80/122/11 82/123/11 81/124/11
f 59/67/11 66/111/11 69/113/11
f 66/111/11 64/110/11 69/113/11
f 49/105/11 69/113/11 64/110/11
f 69/113/11 50/106/11 54/74/11
f 50/106/11 82/123/11 54/74/11
f 82/123/11 80/122/11 54/74/11
f 54/74/11 80/122/11 62/109/11
f 57/102/11 76/125/11 73/103/11
f 76/125/11 71/126/11 70/127/11 73/103/11
f 57/102/11 58/128/11 72/129/11 76/125/11
f 74/82/11 78/130/11 56/83/11
f 78/130/11 79/131/11 55/132/11 56/83/11
f 74/82/11 75/133/11 77/134/11 78/130/11
f 62/135/11 80/136/11 61/96/11
f 50/137/11 51/97/11 82/138/11
f 82/138/11 51/97/11 81/139/11
f 51/97/11 61/96/11 81/139/11
f 61/96/11 80/136/11 81/139/11
f 49/140/11 64/141/11 52/78/11
f 67/79/11 52/78/11 65/142/11
f 52/78/11 64/141/11 65/142/11
