# Blender v2.90.1 OBJ File: ''
# www.blender.org
mtllib street_underground.mtl
o Cube_Cube.001
v -0.060910 -0.030099 -0.000026
v -0.028389 -0.001882 -0.000026
v -0.060910 -0.030099 -0.050026
v -0.028389 -0.001882 -0.050026
v 0.051611 -0.030099 -0.000026
v 0.051611 -0.001882 -0.000026
v 0.051611 -0.030099 -0.050026
v 0.051611 -0.001882 -0.050026
v -0.080099 -0.055255 -0.050026
v -0.080099 -0.055255 -0.000026
v 0.051611 -0.055255 -0.050026
v 0.051611 -0.055255 -0.000026
v -0.119288 -0.083932 -0.050026
v -0.119288 -0.083932 -0.000026
v 0.051611 -0.083932 -0.050026
v 0.051611 -0.083932 -0.000026
v -0.146509 -0.165207 -0.050026
v -0.146509 -0.165207 -0.000026
v 0.051611 -0.165207 -0.050026
v 0.051611 -0.165207 -0.000026
v -0.273560 -0.422230 -0.050026
v -0.273560 -0.422230 -0.000026
v 0.051611 -0.422230 -0.050026
v 0.051611 -0.422230 -0.000026
v 0.084132 -0.030099 -0.000026
v 0.051611 -0.001882 -0.000026
v 0.084132 -0.030099 -0.050026
v 0.051611 -0.001882 -0.050026
v -0.028389 -0.030099 -0.000026
v -0.028389 -0.001882 -0.000026
v -0.028389 -0.030099 -0.050026
v -0.028389 -0.001882 -0.050026
v 0.103322 -0.055255 -0.050026
v 0.103322 -0.055255 -0.000026
v -0.028389 -0.055255 -0.050026
v -0.028389 -0.055255 -0.000026
v 0.142511 -0.083932 -0.050026
v 0.142511 -0.083932 -0.000026
v -0.028389 -0.083932 -0.050026
v -0.028389 -0.083932 -0.000026
v 0.169731 -0.165207 -0.050026
v 0.169731 -0.165207 -0.000026
v -0.028389 -0.165207 -0.050026
v -0.028389 -0.165207 -0.000026
v 0.296783 -0.422230 -0.050026
v 0.296783 -0.422230 -0.000026
v -0.028389 -0.422230 -0.050026
v -0.028389 -0.422230 -0.000026
vt 0.375000 0.000000
vt 0.625000 0.000000
vt 0.625000 0.250000
vt 0.375000 0.250000
vt 0.625000 0.500000
vt 0.375000 0.500000
vt 0.625000 0.750000
vt 0.375000 0.750000
vt 0.625000 1.000000
vt 0.375000 1.000000
vt 0.375000 0.250000
vt 0.375000 0.000000
vt 0.875000 0.500000
vt 0.875000 0.750000
vt 0.375000 0.500000
vt 0.375000 0.750000
vt 0.375000 0.750000
vt 0.375000 0.500000
vt 0.375000 1.000000
vt 0.375000 0.750000
vt 0.375000 0.500000
vt 0.375000 0.250000
vt 0.375000 0.000000
vt 0.375000 1.000000
vt 0.375000 1.000000
vt 0.375000 1.000000
vt 0.375000 0.750000
vt 0.375000 0.250000
vt 0.375000 0.000000
vt 0.125000 0.500000
vt 0.375000 0.500000
vt 0.125000 0.750000
vt 0.375000 0.250000
vt 0.375000 0.000000
vt 0.375000 0.000000
vt 0.375000 0.250000
vt 0.625000 0.250000
vt 0.625000 0.000000
vt 0.375000 0.500000
vt 0.625000 0.500000
vt 0.375000 0.750000
vt 0.625000 0.750000
vt 0.375000 1.000000
vt 0.625000 1.000000
vt 0.375000 0.000000
vt 0.375000 0.250000
vt 0.875000 0.750000
vt 0.875000 0.500000
vt 0.375000 0.500000
vt 0.375000 0.500000
vt 0.375000 0.750000
vt 0.375000 0.750000
vt 0.375000 1.000000
vt 0.375000 0.500000
vt 0.375000 0.750000
vt 0.375000 0.000000
vt 0.375000 0.250000
vt 0.375000 1.000000
vt 0.375000 0.750000
vt 0.375000 1.000000
vt 0.375000 1.000000
vt 0.375000 0.000000
vt 0.375000 0.250000
vt 0.125000 0.500000
vt 0.125000 0.750000
vt 0.375000 0.500000
vt 0.375000 0.250000
vt 0.375000 0.000000
vn -0.6554 0.7553 0.0000
vn 0.0000 0.0000 -1.0000
vn 1.0000 0.0000 0.0000
vn 0.0000 0.0000 1.0000
vn -0.7951 0.6065 0.0000
vn 0.0000 1.0000 0.0000
vn -0.5905 0.8070 0.0000
vn -0.9482 0.3176 0.0000
vn 0.0000 -1.0000 0.0000
vn -0.8965 0.4431 0.0000
vn 0.6554 0.7553 0.0000
vn -1.0000 0.0000 0.0000
vn 0.7951 0.6065 0.0000
vn 0.5905 0.8070 0.0000
vn 0.9482 0.3176 0.0000
vn 0.8965 0.4431 0.0000
usemtl None
s off
f 1/1/1 2/2/1 4/3/1 3/4/1
f 3/4/2 4/3/2 8/5/2 7/6/2
f 7/6/3 8/5/3 6/7/3 5/8/3
f 5/8/4 6/7/4 2/9/4 1/10/4
f 1/1/5 3/4/5 9/11/5 10/12/5
f 8/5/6 4/13/6 2/14/6 6/7/6
f 11/15/3 12/16/3 16/17/3 15/18/3
f 7/6/3 5/8/3 12/16/3 11/15/3
f 5/8/4 1/10/4 10/19/4 12/16/4
f 3/4/2 7/6/2 11/15/2 9/11/2
f 15/18/3 16/17/3 20/20/3 19/21/3
f 10/12/7 9/11/7 13/22/7 14/23/7
f 12/16/4 10/19/4 14/24/4 16/17/4
f 9/11/2 11/15/2 15/18/2 13/22/2
f 20/20/4 18/25/4 22/26/4 24/27/4
f 14/23/8 13/22/8 17/28/8 18/29/8
f 16/17/4 14/24/4 18/25/4 20/20/4
f 13/22/2 15/18/2 19/21/2 17/28/2
f 21/30/9 23/31/9 24/27/9 22/32/9
f 17/28/2 19/21/2 23/31/2 21/33/2
f 19/21/3 20/20/3 24/27/3 23/31/3
f 18/29/10 17/28/10 21/33/10 22/34/10
f 25/35/11 27/36/11 28/37/11 26/38/11
f 27/36/2 31/39/2 32/40/2 28/37/2
f 31/39/12 29/41/12 30/42/12 32/40/12
f 29/41/4 25/43/4 26/44/4 30/42/4
f 25/35/13 34/45/13 33/46/13 27/36/13
f 32/40/6 30/42/6 26/47/6 28/48/6
f 35/49/12 39/50/12 40/51/12 36/52/12
f 31/39/12 35/49/12 36/52/12 29/41/12
f 29/41/4 36/52/4 34/53/4 25/43/4
f 27/36/2 33/46/2 35/49/2 31/39/2
f 39/50/12 43/54/12 44/55/12 40/51/12
f 34/45/14 38/56/14 37/57/14 33/46/14
f 36/52/4 40/51/4 38/58/4 34/53/4
f 33/46/2 37/57/2 39/50/2 35/49/2
f 44/55/4 48/59/4 46/60/4 42/61/4
f 38/56/15 42/62/15 41/63/15 37/57/15
f 40/51/4 44/55/4 42/61/4 38/58/4
f 37/57/2 41/63/2 43/54/2 39/50/2
f 45/64/9 46/65/9 48/59/9 47/66/9
f 41/63/2 45/67/2 47/66/2 43/54/2
f 43/54/12 47/66/12 48/59/12 44/55/12
f 42/62/16 46/68/16 45/67/16 41/63/16
