# Blender v2.90.1 OBJ File: 'street_side.blend'
# www.blender.org
mtllib street_side.mtl
o SM_Env_Sidewalk_Straight_01_Mesh
v 0.050000 -0.000000 -0.000000
v -0.000000 -0.000000 -0.000000
v 0.050000 0.000697 -0.006738
v -0.000000 0.000697 -0.006738
v 0.050000 0.000697 -0.010231
v -0.000000 0.000697 -0.010231
v 0.050000 -0.002303 -0.005874
v -0.000000 -0.002303 -0.005874
v 0.050000 0.000000 -0.010738
v -0.000000 0.000000 -0.010738
v 0.050000 -0.000542 -0.000803
v -0.000000 -0.000542 -0.000803
v -0.000000 -0.000835 -0.002654
v 0.050000 -0.000835 -0.002654
v 0.028925 -0.000000 -0.000000
v 0.029120 -0.000773 -0.001457
v 0.028789 -0.000835 -0.002189
v 0.024383 -0.002303 -0.006280
v 0.024383 0.000697 -0.007143
v 0.024383 0.000697 -0.010636
v 0.024952 0.000000 -0.011369
v 0.024082 0.000000 -0.011144
v 0.049489 0.000000 -0.010838
v 0.049331 0.000697 -0.010231
v 0.049315 0.000697 -0.006738
v 0.049480 -0.002303 -0.005874
v 0.049553 -0.000835 -0.002654
v 0.049553 -0.000542 -0.000803
v 0.000912 0.000000 -0.011089
v 0.000336 0.000697 -0.010231
v 0.000336 0.000697 -0.006738
v 0.000336 -0.002303 -0.005874
v 0.000336 -0.000835 -0.002654
v 0.000336 -0.000542 -0.000803
v 0.000471 0.000000 -0.026691
v 0.049687 0.000000 -0.027384
v -0.000000 0.000000 -0.026684
v 0.025832 0.000418 -0.027020
v 0.050000 0.000000 -0.027388
v 0.024948 0.000144 -0.027026
vt 0.066177 0.209415
vt 0.066177 0.209415
vt 0.066177 0.209415
vt 0.066177 0.209415
vt 0.102183 0.307564
vt 0.102183 0.307564
vt 0.102183 0.307564
vt 0.102183 0.307564
vt 0.102183 0.307564
vt 0.102183 0.307564
vt 0.102183 0.307564
vt 0.102183 0.307564
vt 0.102183 0.307564
vt 0.102183 0.307564
vt 0.102183 0.307564
vt 0.102183 0.307564
vt 0.066177 0.209415
vt 0.066177 0.209415
vt 0.066177 0.209415
vt 0.102497 0.279316
vt 0.102497 0.279316
vt 0.102497 0.279316
vt 0.102497 0.279316
vt 0.102497 0.279316
vt 0.102497 0.279316
vt 0.102497 0.279316
vt 0.102497 0.279316
vt 0.102497 0.279316
vt 0.102497 0.279316
vt 0.102497 0.279316
vt 0.102497 0.279316
vt 0.102497 0.301795
vt 0.102497 0.301795
vt 0.102497 0.301795
vt 0.102183 0.307564
vt 0.102183 0.307564
vt 0.102183 0.307564
vt 0.102183 0.307564
vt 0.102183 0.307564
vt 0.102183 0.307564
vt 0.102183 0.307564
vt 0.102705 0.299407
vt 0.102705 0.299407
vt 0.102705 0.299407
vt 0.102705 0.299407
vt 0.102497 0.279316
vt 0.102497 0.279316
vt 0.102497 0.279316
vt 0.102497 0.279316
vt 0.102497 0.279316
vt 0.102497 0.279316
vt 0.102497 0.279316
vt 0.102497 0.279316
vt 0.102497 0.279316
vt 0.102497 0.279316
vt 0.102497 0.279316
vt 0.102497 0.279316
vt 0.066177 0.209415
vt 0.102318 0.327655
vt 0.102318 0.327655
vt 0.102318 0.327655
vt 0.102318 0.327655
vt 0.102318 0.327655
vt 0.102318 0.327655
vt 0.102318 0.327655
vt 0.102318 0.327655
vt 0.102705 0.299407
vt 0.102705 0.299407
vt 0.102705 0.299407
vt 0.102705 0.299407
vt 0.102705 0.299407
vt 0.102705 0.299407
vt 0.102705 0.299407
vt 0.102705 0.299407
vn 0.0029 0.8643 -0.5030
vn -0.0016 0.8642 -0.5031
vn -0.0022 0.8642 -0.5031
vn -0.0000 1.0000 0.0000
vn -0.0070 0.6990 -0.7151
vn 0.0162 0.2765 0.9609
vn 0.0004 0.9279 -0.3728
vn -0.0003 0.9281 -0.3724
vn -0.0002 0.9281 -0.3724
vn 0.0036 0.9906 -0.1370
vn 0.0025 0.9906 -0.1369
vn -0.0038 0.9907 -0.1361
vn 0.0000 0.8292 -0.5590
vn 0.0000 0.9876 -0.1567
vn 0.0000 0.9100 -0.4147
vn 0.0000 0.2766 0.9610
vn 0.0657 0.6276 -0.7757
vn -0.1948 0.6308 -0.7511
vn 0.0136 0.6966 -0.7173
vn -0.0156 0.2761 0.9610
vn -0.0005 0.9281 -0.3723
vn -0.0049 0.9907 -0.1360
vn 0.0031 0.8643 -0.5030
vn -0.0030 1.0000 0.0040
vn -0.0009 1.0000 0.0021
vn -0.2081 0.6391 -0.7404
vn 0.0000 0.8291 -0.5590
vn 0.0144 0.9998 0.0132
vn 0.0140 0.9998 0.0132
vn 0.0086 0.9999 0.0133
vn -0.0048 1.0000 0.0043
vn -0.0030 1.0000 0.0045
vn -0.2441 0.9697 0.0036
vn -0.2383 0.9712 0.0040
vn -0.1532 0.9882 0.0091
usemtl lambert1
s 1
f 15/1/1 16/2/2 34/3/3 2/4/3
f 30/5/4 31/6/4 19/7/4 20/8/4
f 29/9/5 30/5/5 20/8/5 22/10/5
f 31/6/6 32/11/6 18/12/6 19/7/6
f 32/11/7 33/13/7 17/14/8 18/12/9
f 33/13/10 34/15/10 16/16/11 17/14/12
f 1/17/13 11/18/13 28/19/13
f 27/20/14 28/21/14 11/22/14 14/23/14
f 26/24/15 27/20/15 14/23/15 7/25/15
f 25/26/16 26/24/16 7/25/16 3/27/16
f 24/28/4 25/26/4 3/27/4 5/29/4
f 23/30/17 24/28/17 5/29/17 9/31/17
f 22/32/18 20/33/18 21/34/18
f 21/35/19 20/8/19 24/36/19 23/37/19
f 20/8/4 19/7/4 25/38/4 24/36/4
f 19/7/20 18/12/20 26/39/20 25/38/20
f 18/12/9 17/14/8 27/40/21 26/39/21
f 17/14/12 16/16/11 28/41/22 27/40/22
f 1/17/23 28/19/23 16/2/2 15/1/1
f 10/42/4 29/43/24 35/44/25 37/45/4
f 6/46/26 30/47/26 29/48/26 10/49/26
f 4/50/4 31/51/4 30/47/4 6/46/4
f 8/52/16 32/53/16 31/51/16 4/50/16
f 13/54/15 33/55/15 32/53/15 8/52/15
f 12/56/14 34/57/14 33/55/14 13/54/14
f 2/4/27 34/3/27 12/58/27
f 36/59/28 38/60/29 21/61/30 23/62/30
f 40/63/31 35/64/25 29/65/24 22/66/32
f 39/67/4 36/68/4 23/69/4 9/70/4
f 38/71/33 40/72/34 22/73/35 21/74/35
