# Blender v2.90.1 OBJ File: ''
# www.blender.org
mtllib weed_symbol.mtl
o Cube_Cube.001
v -0.067574 -0.339385 1.000000
v -0.067574 0.339385 1.000000
v -0.067574 -0.339385 -1.000000
v -0.067574 0.339385 -1.000000
v 0.067574 -0.339385 1.000000
v 0.067574 0.339385 1.000000
v 0.067574 -0.339385 -1.000000
v 0.067574 0.339385 -1.000000
vt 0.081087 0.329969
vt 0.079485 0.329969
vt 0.079485 0.328367
vt 0.081087 0.328367
vt 0.079485 0.326766
vt 0.081087 0.326766
vt 0.079485 0.325164
vt 0.081087 0.325164
vt 0.079485 0.323562
vt 0.081087 0.323562
vt 0.082689 0.326766
vt 0.082689 0.325164
vt 0.077883 0.326766
vt 0.077883 0.325164
vn -1.0000 0.0000 0.0000
vn -0.0000 0.0000 -1.0000
vn 1.0000 0.0000 0.0000
vn 0.0000 0.0000 1.0000
vn -0.0000 -1.0000 -0.0000
vn 0.0000 1.0000 0.0000
usemtl Material.002
s off
f 1/1/1 2/2/1 4/3/1 3/4/1
f 3/4/2 4/3/2 8/5/2 7/6/2
f 7/6/3 8/5/3 6/7/3 5/8/3
f 5/8/4 6/7/4 2/9/4 1/10/4
f 3/11/5 7/6/5 5/8/5 1/12/5
f 8/5/6 4/13/6 2/14/6 6/7/6
o Plane
v 0.068249 -0.307941 0.307941
v 0.068249 -0.307941 -0.307941
v 0.068249 0.307941 0.307941
v 0.068249 0.307941 -0.307941
vt 0.000000 0.000000
vt 1.000000 0.000000
vt 1.000000 1.000000
vt 0.000000 1.000000
vn 1.0000 -0.0000 0.0000
usemtl Material.001
s off
f 9/15/7 10/16/7 12/17/7 11/18/7
